<?xml version="1.0" encoding="utf-8" standalone="no"?>
<!DOCTYPE svg PUBLIC "-//W3C//DTD SVG 1.1//EN"
  "http://www.w3.org/Graphics/SVG/1.1/DTD/svg11.dtd">
<svg xmlns:xlink="http://www.w3.org/1999/xlink" width="163.20186pt" height="125.28pt" viewBox="0 0 163.20186 125.28" xmlns="http://www.w3.org/2000/svg" version="1.1">
 <metadata>
  <rdf:RDF xmlns:dc="http://purl.org/dc/elements/1.1/" xmlns:cc="http://creativecommons.org/ns#" xmlns:rdf="http://www.w3.org/1999/02/22-rdf-syntax-ns#">
   <cc:Work>
    <dc:type rdf:resource="http://purl.org/dc/dcmitype/StillImage"/>
    <dc:date>2025-07-15T08:28:44.071755</dc:date>
    <dc:format>image/svg+xml</dc:format>
    <dc:creator>
     <cc:Agent>
      <dc:title>Matplotlib v3.6.3, https://matplotlib.org/</dc:title>
     </cc:Agent>
    </dc:creator>
   </cc:Work>
  </rdf:RDF>
 </metadata>
 <defs>
  <style type="text/css">*{stroke-linejoin: round; stroke-linecap: butt}</style>
 </defs>
 <g id="figure_1">
  <g id="axes_1">
   <g id="patch_1">
    <path d="M 21.828513 113.04 
L 141.373347 113.04 
Q 149.238139 113.04 149.238139 106.360482 
L 149.238139 18.919518 
Q 149.238139 12.24 141.373347 12.24 
L 21.828513 12.24 
Q 13.963721 12.24 13.963721 18.919518 
L 13.963721 106.360482 
Q 13.963721 113.04 21.828513 113.04 
z
" clip-path="url(#p07570533f8)" style="fill: #f48120; opacity: 0.2"/>
   </g>
   <g id="patch_2">
    <path d="M 31.838248 92.212048 
L 132.150091 92.212048 
Q 136.082487 92.212048 136.082487 88.872289 
L 136.082487 36.407711 
Q 136.082487 33.067952 132.150091 33.067952 
L 31.838248 33.067952 
Q 27.905852 33.067952 27.905852 36.407711 
L 27.905852 88.872289 
Q 27.905852 92.212048 31.838248 92.212048 
L 31.838248 92.212048 
z
" clip-path="url(#p07570533f8)" style="fill: none; stroke: #f48120; stroke-width: 4; stroke-linejoin: miter"/>
   </g>
   <g id="patch_3">
    <path d="M 54.847044 43.515914 
L 61.620104 43.515914 
L 62.297704 52.897714 
L 71.047532 43.515914 
L 77.80732 43.515914 
L 70.2942 61.047144 
L 65.264174 61.047144 
L 70.759733 48.223722 
L 61.952768 57.67691 
L 58.577298 57.67691 
L 57.87278 48.223722 
L 52.377221 61.047144 
L 47.333923 61.047144 
L 54.847044 43.515914 
z
M 92.28973 60.085293 
Q 90.544029 60.731537 88.815746 61.058416 
Q 87.085854 61.389052 85.356091 61.389052 
Q 80.197771 61.389052 78.234904 58.939339 
Q 76.272038 56.489625 78.067393 52.300315 
Q 79.86919 48.095976 83.930126 45.65002 
Q 87.992674 43.200307 93.150994 43.200307 
Q 94.880756 43.200307 96.327257 43.530943 
Q 97.775367 43.857822 98.967165 44.504065 
L 97.413337 48.129791 
Q 96.298437 47.273143 95.031335 46.874877 
Q 93.764232 46.47661 92.176036 46.47661 
Q 89.327015 46.47661 87.029573 48.028346 
Q 84.738165 49.576324 83.570781 52.300315 
Q 82.408228 55.013034 83.371234 56.56477 
Q 84.340274 58.112748 87.189295 58.112748 
Q 88.777491 58.112748 90.385953 57.714482 
Q 91.996025 57.312458 93.845168 56.45581 
L 92.28973 60.085293 
z
M 103.800764 43.515914 
L 112.630959 43.515914 
Q 116.572694 43.515914 118.040859 45.003777 
Q 119.515058 46.487882 118.338014 49.234416 
Q 117.154528 51.99598 114.408283 53.480085 
Q 111.666462 54.96419 107.724727 54.96419 
L 104.216538 54.96419 
L 101.60965 61.047144 
L 96.287644 61.047144 
L 103.800764 43.515914 
z
M 107.71869 46.792218 
L 105.620619 51.687887 
L 108.562543 51.687887 
Q 110.110924 51.687887 111.229629 51.049158 
Q 112.348334 50.410429 112.852321 49.234416 
Q 113.354699 48.062161 112.781846 47.427189 
Q 112.208994 46.792218 110.660613 46.792218 
L 107.71869 46.792218 
z
" clip-path="url(#p07570533f8)" style="fill: #f48120"/>
   </g>
   <g id="LineCollection_1">
    <path d="M 31.838248 62.64 
L 132.150091 62.64 
" clip-path="url(#p07570533f8)" style="fill: none; stroke: #f48120; stroke-width: 2"/>
   </g>
  </g>
 </g>
 <defs>
  <clipPath id="p07570533f8">
   <rect x="7.2" y="7.2" width="148.80186" height="110.88"/>
  </clipPath>
 </defs>
</svg>
